<svg width="47" height="40" viewBox="0 0 47 40" fill="none" xmlns="http://www.w3.org/2000/svg">
<g clip-path="url(#clip0_42_110)">
<path fill-rule="evenodd" clip-rule="evenodd" d="M24.1294 0H22.5274C22.3899 0.0598557 21.9311 0.0944442 21.5425 0.123732C21.3375 0.139187 21.1521 0.153166 21.0438 0.168603C20.1354 0.290426 19.2358 0.470778 18.3506 0.708535C12.4932 2.33607 7.82697 6.2659 5.35516 11.8495C4.55362 13.6363 4.02253 15.5332 3.7795 17.4774C3.68045 18.2518 3.64829 19.084 3.63421 19.8648C3.62878 20.1653 3.63855 20.46 3.64817 20.7504C3.67981 21.7051 3.70987 22.6122 3.19308 23.5196C2.59905 24.5626 1.73401 24.9891 0.714344 25.4918L0.607782 25.5443C0.532597 25.5815 0.456998 25.6207 0.381157 25.66C0.254621 25.7256 0.127097 25.7917 0 25.849V29.8671L33.0138 12.9865L41.0711 8.87886C42.27 8.28288 43.4611 7.67198 44.6449 7.04636C44.832 6.94985 45.0242 6.85199 45.2185 6.75306C45.7797 6.46738 46.3584 6.17278 46.8819 5.8759V1.90234C45.3288 2.61416 43.7689 3.43561 42.2282 4.24698C41.5665 4.59547 40.9079 4.94227 40.2553 5.27758L28.5633 11.2558L16.7657 17.2968L11.2171 20.1338C10.8038 20.3429 10.3924 20.5452 9.98215 20.7468C9.10909 21.176 8.24142 21.6025 7.37247 22.0868C7.35337 21.8644 7.33163 21.662 7.31064 21.4667C7.26312 21.0244 7.2194 20.6174 7.21859 20.0925C7.21539 17.97 7.57051 15.9183 8.37657 13.9502C8.44092 13.7931 8.49754 13.65 8.55126 13.5142C8.72378 13.0781 8.86664 12.717 9.13938 12.211C11.1942 8.42906 14.6461 5.60684 18.7531 4.35094C23.1027 3.05541 27.4114 3.56597 31.3837 5.72594C31.5526 5.64895 31.739 5.55121 31.9015 5.46027C32.3587 5.2043 32.8362 4.96932 33.3141 4.73416C33.9155 4.43817 34.5176 4.14192 35.0804 3.8032C34.8274 3.67123 34.5182 3.46685 34.2154 3.26665C34.0101 3.13092 33.8077 2.99709 33.6276 2.88902C31.152 1.40369 28.4912 0.485774 25.6269 0.14013C25.4942 0.124115 25.3059 0.115671 25.1047 0.106651C24.7341 0.0900342 24.32 0.0714627 24.1294 0ZM46.8819 10.0134L13.7735 26.9259C12.147 27.7503 10.5223 28.5879 8.89857 29.4251C6.96699 30.4209 5.03438 31.4173 3.09706 32.3922C2.76079 32.5615 2.41895 32.7397 2.07481 32.9191C1.38388 33.2792 0.683038 33.6445 0 33.9516V38.0217L27.3004 24.0344C27.6058 23.8775 27.9154 23.7288 28.2245 23.5804C28.5118 23.4424 28.7995 23.3043 29.0835 23.1596L39.5194 17.7807C39.5315 17.8924 39.5439 18.0022 39.5562 18.1107C39.6117 18.6015 39.6644 19.0674 39.6755 19.5784C39.767 23.4351 38.4821 27.1977 36.0524 30.1878C33.3839 33.5276 29.5036 35.6688 25.263 36.1414C21.8787 36.5241 18.4595 35.8404 15.4801 34.1853C15.0716 34.3972 14.6333 34.6144 14.1894 34.8344C13.3589 35.2459 12.5079 35.6677 11.7914 36.0842C12.1009 36.2445 12.4232 36.4615 12.7366 36.6724C12.8736 36.7646 13.0089 36.8556 13.1406 36.9403C15.0443 38.1636 17.2201 38.9346 19.4186 39.4223C19.4295 39.4247 19.4406 39.4271 19.4518 39.4295L19.4873 39.437C19.5837 39.4575 19.686 39.4792 19.7732 39.5125C20.1692 39.5495 20.5639 39.605 20.9594 39.6606C21.2856 39.7065 21.6127 39.7524 21.942 39.7883C23.6148 39.9707 25.1453 39.8055 26.8013 39.5578C26.9357 39.5061 27.3452 39.4244 27.7431 39.3449C28.046 39.2844 28.3423 39.2252 28.5055 39.1816C30.0135 38.7787 31.4695 38.2011 32.8443 37.4603C38.5024 34.3914 42.3273 28.7625 43.1072 22.3575C43.1941 21.5997 43.2396 20.8377 43.2435 20.0749C43.2444 19.8316 43.2365 19.5804 43.2286 19.3263C43.2046 18.5567 43.1797 17.759 43.393 17.0663C43.871 15.5153 44.8363 15.0505 46.0138 14.4834C46.2925 14.3492 46.5831 14.2093 46.8819 14.0479V10.0134Z" fill="black"/>
</g>
<defs>
<clipPath id="clip0_42_110">
<rect width="47" height="40" fill="white"/>
</clipPath>
</defs>
</svg>
