<svg version="1.2" xmlns="http://www.w3.org/2000/svg" viewBox="0 0 150 150" width="150" height="150">
	<style>
		.s0 { fill: none } 
		.s1 { fill: #ffffff } 
	</style>
	<path class="s0" d="m0 0h150v150h-150z"/>
	<path class="s1" d="m147.98 45.48v11.57l-5.08 2.57c-4.25 2.17-6.79 6.65-6.42 11.44 0.73 9.84-0.85 19.74-4.68 28.79-15.08 36.13-60.5 49.16-92.39 26.42l10.23-5.22 0.4-0.2c37.2 20.51 81.82-10.33 75.77-52.4-27.12 13.82-97.73 49.73-123.79 63.03v-11.57c20.33-10.38 123.52-62.98 145.96-74.43z"/>
	<path class="s1" d="m2.02 104.49v-11.57l5.08-2.57c4.25-2.17 6.79-6.65 6.42-11.44-0.73-9.84 0.85-19.74 4.68-28.79 15.09-36.13 60.5-49.16 92.39-26.42l-10.23 5.22-0.4 0.2c-37.2-20.51-81.82 10.33-75.77 52.4 27.12-13.82 97.73-49.73 123.79-63.03v11.57c-20.34 10.37-123.52 62.98-145.96 74.43z"/>
</svg>