<svg width="16" height="16" viewBox="0 0 16 16" fill="none" xmlns="http://www.w3.org/2000/svg">
<g clip-path="url(#clip0_56_544)">
<path d="M8.58734 4.67763L11.7693 5.52542M7.90526 7.20882L9.49623 7.63272M7.9844 11.9775L8.62078 12.1471C10.4208 12.6267 11.3208 12.8665 12.0298 12.4594C12.7388 12.0524 12.9799 11.1575 13.4622 9.36765L14.1443 6.83645C14.6266 5.04662 14.8678 4.15171 14.4584 3.44669C14.0491 2.74168 13.1491 2.50189 11.3491 2.0223L10.7127 1.85274C8.91273 1.37316 8.01275 1.13337 7.30373 1.54041C6.59472 1.94745 6.35357 2.84237 5.87127 4.63219L5.18919 7.16339C4.70688 8.95322 4.46573 9.84813 4.87508 10.5531C5.28443 11.2582 6.18442 11.498 7.9844 11.9775Z" stroke="#475569" stroke-width="1.5" stroke-linecap="round"/>
<path d="M8.00016 13.964L7.36527 14.1369C5.56952 14.6259 4.67164 14.8704 3.96429 14.4554C3.25694 14.0404 3.01636 13.1279 2.53519 11.303L1.85471 8.72211C1.37354 6.89717 1.13295 5.98471 1.54134 5.26586C1.89461 4.64404 2.66683 4.66668 3.66683 4.66661" stroke="#475569" stroke-width="1.5" stroke-linecap="round"/>
</g>
<defs>
<clipPath id="clip0_56_544">
<rect width="16" height="16" fill="white"/>
</clipPath>
</defs>
</svg>
