<svg width="99" height="99" viewBox="0 0 99 99" fill="none" xmlns="http://www.w3.org/2000/svg">
<path d="M86.3888 69.446C83.6814 53.1572 75.2531 41.0278 67.9262 33.9034C65.7941 31.8302 64.7281 30.7937 62.3732 29.8343C60.0183 28.875 57.9942 28.875 53.9458 28.875H45.0542C41.0058 28.875 38.9817 28.875 36.6268 29.8343C34.2719 30.7937 33.2059 31.8302 31.0738 33.9034C23.7469 41.0278 15.3186 53.1572 12.6112 69.446C10.5968 81.5654 21.777 90.75 34.2718 90.75H64.7282C77.223 90.75 88.4032 81.5654 86.3888 69.446Z" stroke="#13161A" stroke-width="5" stroke-linecap="round"/>
<path d="M29.9336 18.3268C29.0825 17.0882 27.849 15.4069 30.3971 15.0234C33.0162 14.6293 35.7357 16.4222 38.3978 16.3854C40.806 16.352 42.0329 15.2839 43.3493 13.7589C44.7354 12.153 46.8816 8.25 49.5 8.25C52.1184 8.25 54.2646 12.153 55.6507 13.7589C56.9671 15.2839 58.194 16.352 60.6022 16.3854C63.2643 16.4222 65.9838 14.6293 68.6029 15.0234C71.151 15.4069 69.9175 17.0882 69.0664 18.3268L65.2185 23.9276C63.5725 26.3235 62.7494 27.5215 61.0271 28.1982C59.3047 28.875 57.079 28.875 52.6276 28.875H46.3724C41.921 28.875 39.6953 28.875 37.9729 28.1982C36.2506 27.5215 35.4275 26.3235 33.7815 23.9276L29.9336 18.3268Z" stroke="#13161A" stroke-width="5"/>
<path fill-rule="evenodd" clip-rule="evenodd" d="M28.3383 56.8641L27.4527 57.3754C27.3962 57.4529 27.1538 57.6188 26.9485 57.7593C26.8402 57.8334 26.7423 57.9005 26.6874 57.9438C26.2249 58.3022 25.7862 58.6909 25.3741 59.1072C22.6653 61.8927 21.363 65.5941 21.8113 69.5261C21.949 70.7878 22.2719 72.0251 22.7694 73.197C22.9663 73.6646 23.219 74.1433 23.465 74.5873C23.5596 74.7582 23.6608 74.921 23.7605 75.0814C24.0883 75.6087 24.3997 76.1097 24.4089 76.7854C24.4196 77.5622 24.08 78.0783 23.6797 78.6867L23.6379 78.7503C23.6084 78.7952 23.5793 78.8414 23.5502 78.8877C23.5016 78.965 23.4525 79.0429 23.4009 79.1158L24.7068 81.3776L37.4701 61.3389L40.589 56.4552C41.058 55.7371 41.5179 55.0131 41.9689 54.2831C42.041 54.1691 42.1155 54.0526 42.1907 53.9349C42.4081 53.595 42.6322 53.2445 42.8251 52.9103L41.5337 50.6735C40.9065 51.5699 40.3113 52.5301 39.7233 53.4785C39.4707 53.8859 39.2194 54.2913 38.9676 54.6884L34.4474 61.785L29.8892 68.9509L27.7441 72.3187C27.5836 72.5683 27.4219 72.8134 27.2607 73.0579C26.9175 73.5781 26.5765 74.0951 26.2536 74.6451C26.1708 74.526 26.093 74.419 26.0179 74.3157C25.8478 74.0819 25.6914 73.8667 25.5204 73.5716C24.8288 72.3778 24.3583 71.1095 24.1642 69.7444C24.1488 69.6354 24.1335 69.5368 24.1191 69.4432C24.0727 69.1427 24.0343 68.8938 24.0207 68.5219C23.9274 65.7372 24.9183 63.0468 26.7804 61.0291C28.7638 58.9117 31.3115 57.824 34.2093 57.7721C34.2776 57.6748 34.3489 57.5603 34.4092 57.4573C34.5787 57.1673 34.7663 56.8826 34.954 56.5977C35.1903 56.2392 35.4268 55.8803 35.6279 55.51C35.4451 55.5164 35.2078 55.5 34.9753 55.484C34.8177 55.4731 34.6623 55.4624 34.5276 55.459C32.6765 55.413 30.9073 55.7455 29.2116 56.465C29.1331 56.4984 29.0262 56.5537 28.9121 56.6128C28.7019 56.7217 28.4669 56.8435 28.3383 56.8641ZM44.1698 55.2393L31.3647 75.3262C30.7335 76.3093 30.1076 77.2994 29.4821 78.2888C28.738 79.4659 27.9935 80.6435 27.2395 81.8106C27.1086 82.0132 26.9775 82.2226 26.8456 82.4334C26.5807 82.8567 26.312 83.286 26.0343 83.6769L27.3571 85.968L37.9023 69.3814C38.0202 69.1956 38.143 69.0131 38.2656 68.8309C38.3796 68.6615 38.4937 68.492 38.6037 68.3199L42.6243 61.9614C42.6673 62.0204 42.7099 62.0783 42.7519 62.1354C42.9421 62.394 43.1227 62.6394 43.2949 62.9235C44.5989 65.0653 45.1114 67.5934 44.7402 70.0521C44.3505 72.7837 42.9014 75.2275 40.7109 76.8468C38.9645 78.1424 36.8522 78.8488 34.6674 78.868C34.5104 79.1176 34.3387 79.3797 34.1648 79.6453C33.8395 80.142 33.5061 80.651 33.2454 81.1141C33.4686 81.1056 33.7173 81.1248 33.9591 81.1436C34.0648 81.1517 34.1691 81.1598 34.2695 81.1654C35.7194 81.2465 37.1727 80.9861 38.5465 80.559C38.5533 80.5568 38.5602 80.5547 38.5672 80.5524L38.5893 80.5454C38.6492 80.5261 38.7128 80.5057 38.7718 80.4966C39.0028 80.391 39.239 80.2963 39.4757 80.2014C39.6709 80.1231 39.8666 80.0446 40.0603 79.9597C41.0443 79.5285 41.8367 78.947 42.6716 78.2791C42.7291 78.2071 42.9288 78.0304 43.123 77.8586C43.2707 77.7279 43.4153 77.6 43.4914 77.5234C44.194 76.8154 44.8112 76.0255 45.3304 75.1698C47.4606 71.6364 47.7456 67.2471 46.0951 63.3927C45.8968 62.9384 45.6743 62.4949 45.4286 62.0643C45.35 61.9271 45.264 61.7882 45.177 61.6477C44.9136 61.2221 44.6406 60.781 44.5334 60.323C44.2936 59.2974 44.6761 58.7276 45.1427 58.0326C45.2532 57.8682 45.3683 57.6967 45.481 57.5105L44.1698 55.2393Z" fill="#F5B841"/>
<path fill-rule="evenodd" clip-rule="evenodd" d="M75.4264 60.283L74.8466 59.4407C74.7648 59.3905 74.5802 59.162 74.4239 58.9685C74.3414 58.8664 74.2668 58.774 74.2193 58.7228C73.8254 58.2901 73.4032 57.8836 72.9555 57.5058C69.9642 55.026 66.1713 54.021 62.2872 54.7793C61.0404 55.0164 59.8326 55.4363 58.7037 56.025C58.2532 56.2584 57.796 56.5482 57.3729 56.8285C57.21 56.9364 57.0557 57.0502 56.9038 57.1623C56.4041 57.5308 55.9293 57.8809 55.2564 57.9436C54.483 58.0157 53.9415 57.7181 53.3034 57.3673L53.2366 57.3306C53.1895 57.3048 53.1412 57.2794 53.0927 57.2541C53.0118 57.2117 52.9302 57.169 52.8535 57.1233L50.7022 58.6042L71.6888 69.7404L76.8042 72.4628C77.5572 72.8735 78.3153 73.2746 79.0787 73.6664C79.1981 73.7292 79.3201 73.7942 79.4434 73.8599C79.7994 74.0497 80.1666 74.2454 80.515 74.4112L82.6425 72.9467C81.6993 72.3925 80.6949 71.8751 79.7029 71.3641C79.2768 71.1446 78.8528 70.9262 78.437 70.7066L71.0047 66.7626L63.5004 62.7862L59.9733 60.9146C59.7117 60.7744 59.4545 60.6326 59.1981 60.4912C58.6523 60.1903 58.1099 59.8913 57.5361 59.613C57.6483 59.521 57.7488 59.4349 57.8458 59.3519C58.0654 59.1639 58.2675 58.9909 58.5482 58.7971C59.6835 58.0131 60.9105 57.4436 62.2559 57.1421C62.3634 57.118 62.4605 57.095 62.5526 57.0732C62.8485 57.0032 63.0936 56.9452 63.4632 56.9021C66.2318 56.5886 68.9922 57.3634 71.151 59.0598C73.4189 60.8693 74.705 63.3228 74.9861 66.2074C75.0885 66.2679 75.2083 66.3298 75.3158 66.3817C75.6183 66.5278 75.917 66.6923 76.2158 66.8568C76.592 67.064 76.9685 67.2713 77.3535 67.4424C77.3326 67.2607 77.3302 67.0229 77.3278 66.7899C77.3261 66.6319 77.3245 66.4761 77.3172 66.3416C77.2165 64.4926 76.7449 62.7553 75.8933 61.122C75.8539 61.0463 75.7902 60.9442 75.7223 60.8351C75.597 60.6341 75.4571 60.4095 75.4264 60.283ZM78.2998 75.9361L57.2619 64.762C56.2319 64.2106 55.1954 63.6651 54.1595 63.1199C52.9272 62.4714 51.6943 61.8225 50.4711 61.1632C50.2588 61.0488 50.0397 60.9348 49.8191 60.8199C49.3762 60.5894 48.9269 60.3556 48.5153 60.1096L46.3361 61.6097L63.7058 70.8083C63.9003 70.911 64.092 71.019 64.2833 71.1268C64.4612 71.2271 64.6393 71.3274 64.8195 71.4234L71.4764 74.9278C71.421 74.9754 71.3667 75.0224 71.3131 75.0688C71.0704 75.2789 70.84 75.4783 70.5704 75.6725C68.5386 77.142 66.0591 77.8531 63.5787 77.6777C60.8248 77.5057 58.274 76.2546 56.4862 74.1992C55.0564 72.5609 54.185 70.5113 53.9928 68.3347C53.7315 68.198 53.4566 68.0477 53.1782 67.8953C52.6572 67.6104 52.1234 67.3184 51.6411 67.0952C51.6673 67.317 51.6678 67.5664 51.6683 67.8089C51.6685 67.9149 51.6687 68.0196 51.6711 68.1201C51.7051 69.5719 52.0798 70.9999 52.6143 72.3356C52.617 72.3422 52.6197 72.3489 52.6225 72.3557L52.6313 72.3772C52.6552 72.4354 52.6806 72.4972 52.6944 72.5553C52.8179 72.7772 52.931 73.0051 53.0444 73.2336C53.1379 73.422 53.2316 73.6109 53.3316 73.7972C53.8394 74.744 54.4818 75.4878 55.2138 76.2672C55.2901 76.3188 55.482 76.5039 55.6686 76.6839C55.8106 76.8208 55.9495 76.9548 56.032 77.0246C56.7934 77.6689 57.6297 78.2216 58.5239 78.6714C62.2148 80.5151 66.6129 80.4516 70.3245 78.501C70.7616 78.2674 71.1861 78.0105 71.5959 77.7314C71.7265 77.6422 71.8582 77.5455 71.9914 77.4477C72.3947 77.1514 72.8128 76.8443 73.2609 76.7012C74.2643 76.3808 74.8625 76.717 75.5923 77.1272C75.765 77.2242 75.9451 77.3254 76.1396 77.4231L78.2998 75.9361Z" fill="#F5B841"/>
</svg>
