<svg width="99" height="99" viewBox="0 0 99 99" fill="none" xmlns="http://www.w3.org/2000/svg">
<path d="M49.5 24.75L49.5 82.5" stroke="#13161A" stroke-width="5" stroke-linecap="round"/>
<path d="M24.6698 13.5524C38.4522 16.1766 46.6666 21.6658 49.5 24.8172C52.3334 21.6658 60.5478 16.1766 74.3302 13.5524C81.3124 12.223 84.8035 11.5583 87.7768 14.106C90.75 16.6538 90.75 20.7909 90.75 29.0652V58.8017C90.75 66.3674 90.75 70.1502 88.8418 72.512C86.9336 74.8738 82.7324 75.6737 74.3302 77.2735C66.8401 78.6996 60.9945 80.9718 56.7634 83.2552C52.6004 85.5017 50.5189 86.625 49.5 86.625C48.4811 86.625 46.3996 85.5017 42.2366 83.2552C38.0055 80.9718 32.1599 78.6996 24.6698 77.2735C16.2676 75.6737 12.0664 74.8738 10.1582 72.512C8.25 70.1502 8.25 66.3674 8.25 58.8017V29.0652C8.25 20.7909 8.25 16.6538 11.2232 14.106C14.1965 11.5583 17.6876 12.223 24.6698 13.5524Z" stroke="#13161A" stroke-width="5" stroke-linecap="round" stroke-linejoin="round"/>
<path d="M72.3896 47.4595L71.5957 47.8823C71.281 48.0503 70.9788 48.1945 70.7217 48.3169C70.1344 48.5963 69.8159 48.7574 69.5693 48.9644C69.377 49.1259 69.197 49.3453 69.0557 49.7983C68.9454 50.1525 68.9443 50.6216 68.9688 51.394C68.976 51.6239 68.9843 51.8833 68.9834 52.1392V52.1421C68.9795 52.9029 68.9333 53.6629 68.8457 54.4185L68.8447 54.4292C68.0545 60.8414 64.1791 66.4704 58.4561 69.5376L58.4531 69.5396C57.064 70.2791 55.5926 70.8561 54.0693 71.2583H54.0684C53.9629 71.2861 53.8257 71.3164 53.6826 71.3462L53.2627 71.4302C53.0727 71.4677 52.8976 71.5029 52.7549 71.5337C52.6838 71.549 52.6306 71.5608 52.5947 71.5698C52.5447 71.5824 52.5683 71.5789 52.623 71.5581L52.4707 71.6157L52.3096 71.6401C50.8283 71.859 49.3409 72.0282 47.709 71.8921L47.3809 71.8608C47.0458 71.8248 46.7166 71.7787 46.415 71.7368C46.0391 71.6846 45.7037 71.6385 45.373 71.6079L45.1709 71.5894L45.0117 71.5288C45.0065 71.5276 44.9999 71.5258 44.9912 71.5239C44.9759 71.5206 44.9591 71.5171 44.9355 71.5122H44.9346L44.9014 71.5054L44.8994 71.5044C44.887 71.5018 44.8731 71.4988 44.8584 71.4956C42.6876 71.0198 40.4716 70.2545 38.498 69.0015C38.359 68.9132 38.2184 68.8194 38.0928 68.7358C37.7824 68.5295 37.5547 68.3798 37.3555 68.2778L34.8955 67.019L37.292 65.6421C38.014 65.2274 38.8584 64.8149 39.624 64.4399C40.0422 64.2352 40.4396 64.0396 40.8076 63.8511L41.5166 63.4888L42.2139 63.8716C44.7316 65.2535 47.6226 65.8251 50.4844 65.5054L50.4863 65.5044C54.0653 65.1103 57.3371 63.3253 59.585 60.5454L59.5928 60.5356C61.4955 58.2218 62.5616 55.3542 62.6406 52.3862L54.9082 56.3247L54.9014 56.3276C54.6176 56.4704 54.3327 56.6056 54.0664 56.7319C53.774 56.8707 53.5014 56.9997 53.2363 57.1343L53.2354 57.1353L27.6777 70.0737L25.5 71.1753V63.9956L26.3906 63.5991C26.9836 63.3357 27.6012 63.0183 28.2559 62.6812C28.5761 62.5162 28.9057 62.3471 29.2314 62.1851C31.0374 61.2871 32.8401 60.3684 34.6494 59.4468C36.1687 58.6728 37.6946 57.8956 39.2227 57.1304L70.2139 41.4878L72.3896 40.3901V47.4595ZM49.8584 32.0649L50.0312 32.1304C50.0505 32.1329 50.0781 32.1358 50.1152 32.1392C50.2382 32.1501 50.387 32.1575 50.5684 32.1655C50.7329 32.1728 50.976 32.1826 51.1689 32.2056C54.0591 32.5502 56.7501 33.467 59.2461 34.9468C59.4483 35.0666 59.6669 35.21 59.8516 35.3306C60.1576 35.5305 60.3751 35.6705 60.5283 35.7495L62.9336 36.9897L60.6074 38.3726C60.0172 38.7235 59.3963 39.0248 58.8438 39.2935C58.3901 39.5141 57.9784 39.7138 57.5908 39.9282C57.4171 40.0243 57.2041 40.1354 56.9961 40.229L56.3223 40.5327L55.6709 40.1831C52.2911 38.3672 48.6667 37.9453 44.9893 39.0249C41.5193 40.0735 38.6057 42.4279 36.8721 45.5776C36.6622 45.9623 36.5572 46.2271 36.3984 46.6235C36.3484 46.7484 36.2917 46.8887 36.2275 47.0435C35.6243 48.4987 35.3217 50.0199 35.2686 51.6128C35.41 51.5439 35.5499 51.4745 35.6895 51.4067L36.8301 50.8472L42.0186 48.2261L53.0625 42.6382H53.0635L64.0068 37.1089L65.8408 36.1626C67.2762 35.4157 68.773 34.6367 70.2705 33.9585L72.3896 32.9985V39.8794L71.623 40.3091C71.0984 40.6031 70.5247 40.8909 70.0059 41.1519C69.8235 41.2436 69.6474 41.3324 69.4766 41.4194L69.4756 41.4185C68.361 42.0004 67.2394 42.57 66.1104 43.1245L58.582 46.9155L27.6768 62.5308L25.5 63.6304V56.5015L26.3887 56.105C26.4644 56.0712 26.5478 56.0294 26.6729 55.9653C26.7415 55.9302 26.8255 55.887 26.9111 55.8452H26.9121L27.0117 55.7964L27.6504 55.4741C28.192 55.1827 28.4663 54.9588 28.6895 54.5718C28.9305 54.1536 28.9472 53.7378 28.916 52.8091C28.9072 52.5464 28.8965 52.2355 28.9023 51.9126C28.9158 51.1764 28.9471 50.3394 29.0508 49.5386C29.2975 47.5924 29.8356 45.6939 30.6475 43.9058C33.1529 38.319 37.8868 34.3925 43.7822 32.7739L43.7949 32.77V32.771C44.6853 32.5347 45.5904 32.3549 46.5039 32.2339V32.2349C46.6663 32.2128 46.895 32.1951 47.0557 32.1831C47.244 32.1691 47.4158 32.1562 47.5547 32.1411C47.582 32.1381 47.6052 32.1347 47.624 32.1323L47.7803 32.0649H49.8584Z" fill="#F5B841" stroke="#F9FAFB" stroke-width="3"/>
</svg>
